<svg xmlns="http://www.w3.org/2000/svg" width="100" height="100"><path fill="#67C6DD" d="M3.3 41.26v19.48l21.1-19.48z"/><path d="M3.3 41.26V51l10.54-9.74z"/><path fill="#0290BF" d="M76.73 45.46h4.97l-2.74 11.12H74zM59.1 56.58h4.52l.82-3.36 2.5 3.36h5.5l-3.97-5.65 6.18-5.47h-5.22l-3.95 3.4.84-3.4h-4.7zM51.43 56.58l2.74-11.12h4.96L56.4 56.58zM81.32 56.58h3.44l1.6-6.34 2 6.34h5.57l2.78-11.12h-3.66l-1.56 6.13-2.16-6.14H84.1z"/><g fill="#0290BF"><path d="M29.16 54s2.13-.17 2.74-2.7c0 0 .32-1.92-.4-2.62 0 0-.5-.46-1.22-.44h-1.9L27 54h2.16zm-7.55 2.58l2.8-11.12h7.46s5.13.4 4.6 5.6c-.02.16-.26 4.64-5.74 5.52h-9.1zM44.07 51.91l-.5-2.83L42 51.9h2.07zm-3.45 2.56l-1.34 2.12H36l6.2-11.12h5.67l1.97 11.12H44.9l-.38-2.12h-3.9z"/></g></svg>