<svg xmlns="http://www.w3.org/2000/svg" width="100" height="100"><path fill="#FD1813" fill-rule="evenodd" d="M9.85 64.1H3.63s1.17-.6 1.17-1.7c0-.48 0-17.66 0-18.5 0-1.28-1.17-1.6-1.17-1.6h13.02v3.67s-.32-1.23-1.33-1.23c-.85 0-6.64 0-6.64 0v6h6.75v3.36s-.2-.8-1.17-.8c-.8 0-5.58 0-5.58 0s0 8.57 0 9.04c0 1.23 1.17 1.76 1.17 1.76zM89.65 64.5c-4.58 0-7.76-2.8-7.76-5.67 0-4.62 0-13.87 0-14.94 0-1.07-1.3-1.6-1.3-1.6h6.3s-1.3.53-1.3 1.54c0 1 0 14.62 0 15 0 1.43 2.02 3.26 3.95 3.25 1.9-.02 3.82-1.82 3.82-3.27 0-.53 0-14.27 0-14.96 0-1.12-1.27-1.55-1.27-1.55h6.27s-1.27.43-1.27 1.55 0 10.87 0 14.96c0 2.8-3.18 5.7-7.45 5.68zM26.5 64.5c-4.6 0-7.77-2.8-7.77-5.67 0-4.62 0-13.87 0-14.94 0-1.07-1.28-1.6-1.28-1.6h6.27s-1.27.53-1.27 1.54c0 1 0 14.62 0 15 0 1.43 2 3.26 3.93 3.25 1.9-.02 3.83-1.82 3.83-3.27 0-.53 0-14.3 0-15 0-1.1-1.27-1.53-1.27-1.53h6.28s-1.27.42-1.27 1.54 0 10.9 0 15c0 2.8-3.17 5.7-7.44 5.67zM43.08 42.3s-1.28.53-1.28 1.65c0 1.17 0 22.97 0 22.97s-.06 3.98-6.8 5.74c-.14.03 3.03-3.35 3.03-5.74 0-1.6.03-22.12 0-22.97-.06-1.17-1.28-1.65-1.28-1.65h6.33zM49.46 62.4c.05 1.17 1.27 1.64 1.27 1.64H44.4s1.28-.53 1.28-1.64c.02-6.6.03-17.84 0-18.45-.05-1.17-1.27-1.65-1.27-1.65h6.33s-1.27.53-1.27 1.65c0 .8 0 11.9 0 18.4v.05zM60.94 44.74c0 2.8 0 11.94 0 17.6v.06c.06 1.17 1.28 1.64 1.28 1.64H55.9s1.27-.53 1.27-1.64c0-5.67.02-14.82 0-17.66 0 0-2.7 0-4.2 0-1.33 0-2.08 1.5-2.08 1.5l1.27-3.94H67l-.9 3.6s-.05-1.16-1.33-1.16c-1 0-3.83 0-3.83 0zM42.5 35.78c.77 1.67 2.94 2.93 5.26 2.93 3.36 0 6.1-2.7 6.1-6.08 0-3.36-2.74-6.1-6.1-6.1-1.84 0-3.48.82-4.6 2.1l.04 3.23c.2-2.2 2.6-3.47 4.56-3.4 2.3.05 4.18 1.86 4.18 4.18 0 2.3-1.87 4.18-4.18 4.18-1.5 0-2.77-.8-3.5-1.96l-.2-.37c-.84-1.55-2.54-2.74-4.5-2.74-2.78 0-5.03 2.26-5.03 5.04 0 2.78 2.25 5.04 5.04 5.04 1.6 0 3-.74 3.94-1.9v-2.25l-1.8 1.5c-.56.38-1.35.7-2.13.7-1.7 0-3.1-1.38-3.1-3.08 0-1.7 1.4-3.08 3.1-3.08 1.26 0 2.3.77 2.9 2l.03.08zM78.36 45.7s0-2.05 0-2.68c0-.38-2.44-.93-3.98-.95-1.12 0-7.6.25-7.6 5.92 0 4.64 4.9 6.47 5.54 6.8.64.3 4.23 1.9 4.23 3.82 0 2.5-2.13 3.75-4.68 3.75s-4.63-1.65-5.2-2.15c-.06-.04.86 3.82.86 3.82s2.3.6 4.26.6c.9 0 8.55 0 8.55-6.07 0-4.6-4.7-6.25-5.64-6.7-.84-.42-4.16-1.7-4.16-4.1 0-1.9 2.28-3.5 4-3.5 2.38 0 3.23.77 3.8 1.43h.02z" clip-rule="evenodd"/></svg>